<svg width="280" height="180" fill="none" xmlns="http://www.w3.org/2000/svg"><path fill="#fff" d="M70 15h166v165H70z"/><path fill-rule="evenodd" clip-rule="evenodd" d="M174.068 14.367c-31.836-5.212-28.591 46.959-70.951 39.818-43.329-7.304-56.279 44.219-43.329 72.678 13.987 30.738 103.547 47.262 135.588 24.603 36.061-25.503 38.426-127.32-21.308-137.1z" fill="#6B6B9A" fill-opacity=".3"/><path fill-rule="evenodd" clip-rule="evenodd" d="M201.801 112.615c-8.425-5.441-29.08-14.925-37.022-17-1.136-.296-2.157-.538-2.269-.538-.85 0-.989 3.984-.338 9.667 1.358 11.842 5.655 31.315 6.911 31.315.526 0 8.375-4.067 11.872-6.152 2.08-1.24 4.04-2.254 4.356-2.254.415 0 1.408.998 3.595 3.612 1.662 1.987 3.575 4.181 4.253 4.877 1.21 1.244 1.243 1.259 1.976.873.409-.216 1.149-.734 1.643-1.151l.899-.759-.721-1.321c-.396-.727-2.016-2.922-3.599-4.879-1.974-2.44-2.879-3.769-2.879-4.227 0-.562.536-1.033 3.36-2.953 3.505-2.383 7.359-5.236 9.148-6.77l1.047-.898-2.232-1.442zM165.58 67.487c-8.55-.127-19.695-.355-24.767-.505-14.923-.442-28.007-.253-34.515.498l-.127.015c-3.241.374-6.552 1.152-8.397 2.334-2.37 1.52-3.688 2.102-6.266 6.115-.914 1.13-1.482 2.317-1.488 3.513-.202.36-1.879 7.29-1.39 20.348.139 3.686.363 10.31 1.39 12.024 3.356 5.608 14.887 6.114 58.286 5.444h12.847l-1.163-7.724c-.737-5.02-1.073-13.033-.616-14.7.471-1.716 1.289-2.4 2.872-2.4 3.728 0 13.145 3.537 26.588 9.987 2.501 1.199 4.635 2.094 4.742 1.987.336-.334.391-12.135.081-17.097-.901-14.405-2.713-17.706-10.556-19.223-1.49-.289-5.798-.44-17.521-.616zM83.151 78.631c-.405 1.279-.602 2.471-.66 3.179l-.175.656c-.644 2.416-.22 26.348.52 29.363 1.133 4.616 3.715 6.88 9.515 8.347 6.529 1.652 15.493 2.026 45.821 1.916l23.969-.088.337 1.577c1.365 6.375 3.061 12.176 4.008 13.712.869 1.408 1.564 1.714 3.134 1.378 2.08-.445 8.964-3.977 14.999-7.696.167-.103 1.633 1.428 3.507 3.663 3.745 4.464 4.827 5.362 6.459 5.362.899 0 1.469-.231 2.793-1.134 3.784-2.58 3.766-4.75-.079-9.521a484.042 484.042 0 01-2.546-3.184l-.862-1.096 3.115-2.122c3.966-2.702 8.509-6.294 9.221-7.292 1.114-1.56 1.056-2.083-.386-3.469-1.257-1.209-5.728-4.063-8.329-5.317l-1.267-.611.213-1.714c.315-2.544.209-16.194-.155-19.972-1.361-14.119-4.109-17.903-14.124-19.453-1.037-.16-9.111-.388-18.443-.52-9.13-.128-21.689-.354-27.911-.501-13.19-.313-29.006.194-35.118.985-8.347 1.37-12.49 6.328-12.49 6.328-.785.55-2.8 3.107-3.16 3.532-.888 1.05-1.5 2.415-1.906 3.692z" fill="#343461"/><path d="M157.603 73.6c-.149.18-3.321 6.121-7.05 13.201-3.729 7.08-6.836 12.932-6.903 13.004-.368.392-6.158-6.38-8.779-10.268-.844-1.25-1.72-2.344-1.948-2.431-.623-.24-1.658.25-1.858.878-.369 1.158 4.173 7.406 8.931 12.287 3.123 3.203 4.035 3.82 4.76 3.22.553-.457 15.159-28.252 15.159-28.847 0-1.054-1.681-1.813-2.312-1.044zM21.258 155.343c-.269.007-.537.058-.805.088.166.268.286.587.51.79.216.196.531.356.819.389 2.16.247 4.345.748 6.486.619 4.001-.24 8.002-.706 11.959-1.344 6.45-1.04 12.863-2.311 19.3-3.436.782-.137 1.341-.491 1.17-1.189-.158-.646-.63-1.397-1.587-1.161-1.807.445-3.608.916-5.5 1.368-5.698 1.848-11.486 2.961-17.358 3.429-4.977.397-9.994.313-14.994.447z" fill="#343461"/><path fill-rule="evenodd" clip-rule="evenodd" d="M16.736 159.703c-1.655-2.588-3.168-5.321-4.319-8.161-1.233-3.045-1.539-6.347-1.056-9.616.658-4.456 2.402-8.439 5.289-11.936 1.222-1.48 2.595-2.755 4.084-3.925.712-.561 1.46-1.076 2.209-1.591.244-.167.488-.335.73-.505 2.092-1.459 3.563-3.483 5.035-5.508l.041-.057c1.504-2.069 3.568-3.464 5.657-4.878l.076-.051c3.126-2.114 6.66-3.165 10.227-4.086 1.846-.477 3.758-.714 5.665-.951.466-.058.931-.116 1.396-.177 1.547-.204 3.104-.343 4.7-.484.467-.042.937-.083 1.411-.127l1.022-.119c2.568-.3 5.078-.592 7.58-.939.845-.116 1.68-.298 2.515-.479.4-.087.8-.174 1.201-.254l.037-.007a1.46 1.46 0 01.423-.045c.379.035.756.081 1.134.126l.432.052c-.124.115-.241.249-.358.382-.253.288-.506.575-.822.685-3.7 1.281-7.556 1.746-11.449 2.015-.703.048-1.408.093-2.113.137-4.013.251-8.028.503-11.936 1.57-3.018.825-5.93 1.909-8.57 3.61l-.525.337c-1.358.872-2.718 1.746-3.986 2.735-1.025.799-1.98 1.688-2.933 2.576-.37.345-.74.689-1.114 1.028-.066.061-.093.286-.084.289l.142.058c.173.072.35.146.526.15.59.013 1.18.014 1.772.016.606.001 1.211.003 1.817.017 3.04.069 5.767.949 8.213 2.874 2.416 1.903 3.344 4.404 3.193 7.284-.193 3.649-2.549 5.523-5.933 5.888-3.095.334-5.728-.698-8.08-2.871-2.299-2.124-3.42-4.842-4.498-7.597a10.57 10.57 0 01-.101-.265c-.328-.869-.527-1.397-1.584-.591-.419.319-.828.652-1.238.985-.88.714-1.758 1.428-2.72 2.005-1.582.949-2.506 2.383-3.442 3.838-.136.211-.273.423-.412.634-2.163 3.288-3 6.906-3 10.832 0 3.011.642 5.865 1.854 8.558 1.25 2.78 2.863 5.321 5.091 7.545 3.611 3.601 7.897 5.792 12.718 7.024 3.415.873 6.908.87 10.4.542.354-.034.717.038 1.081.109.172.034.345.067.516.09.666.088 1.183.51.988 1.121-.147.463-.76 1.088-1.18 1.098l-.982.022c-1.965.043-3.943.067-5.874-.211-2.365-.341-4.695-1.042-6.992-1.747-3.84-1.176-7.32-3.061-10.327-5.773-.379-.342-.788-.663-1.197-.985-.888-.699-1.776-1.397-2.35-2.296zm24.34-25.494c-2.352 2.307-5.364 2.566-8.239.482-2.92-2.116-5.357-4.45-5.586-8.362-.064-1.105.317-1.79 1.14-2.36 3.347-1.757 6.36-.991 9.242.602 2.009 1.11 3.667 2.673 4.607 4.828.82 1.88.317 3.356-1.165 4.81z" fill="#343461"/><path d="M252.575 104.813c-1.203-.566-2.377-1.203-3.612-1.685-.399-.155-1.084-.065-1.4.182-.368.287-.379.866.181 1.226.538.346 1.054.762 1.641.988 1.197.46 2.457.757 3.654 1.219a385.072 385.072 0 018.857 3.573c.306.132.58.222.86.271.242.043.49.039.735.057-.057-.333.01-.815-.195-.971a9.019 9.019 0 00-1.982-1.155c-1.427-.597-2.91-1.065-4.334-1.667-1.49-.63-2.941-1.349-4.405-2.038zm7.921-39.742c.121-.086.18-.425.114-.582-.399-.951-1.509-1.064-2.529-.242-2.214 1.784-4.404 3.598-6.627 5.37-.335.267-.903.423-.524.914.149.193.857.184 1.143.003 2.186-1.384 4.33-2.834 6.55-4.291.67-.404 1.292-.759 1.873-1.172zm-29.695-44.954c-.07-.3-.228-.69-.458-.8-.197-.094-.639.072-.826.269-.412.433-.877.907-1.064 1.452-1.081 3.15-2.571 6.074-4.377 8.87-1.895 2.935-3.592 6-5.461 8.953-2.543 4.016-5.171 7.976-7.739 11.976-.11.172-.066.557.053.746.353.56 1.066.495 1.532-.22 1.702-2.606 3.362-5.24 5.026-7.871a295.053 295.053 0 003.004-4.832c1.178-1.944 2.316-3.913 3.492-5.858.648-1.071 1.339-2.116 2.044-3.264l.018-.031c.426-.774.808-1.468 1.216-2.145.885-1.47 1.848-2.897 2.654-4.41.461-.867 1.144-1.736.886-2.835zm-57.394 3.503c-.029-.454-.097-.815-.159-1.177-.132-.776-.771-.977-1.346-1.047-.329-.04-.936.28-1.036.57-.157.45-.041 1.025.053 1.524.109.577.464 1.127.456 1.694-.014 1.037-.267 2.076-.326 3.117a17.34 17.34 0 00.081 2.726c.017.174.452.288.695.43.084-.19.201-.373.245-.57.18-.796.357-1.593.498-2.395.281-1.59.538-3.186.839-4.872zm-123.871 8.1c.087-.052.158-.06.245-.113-.22-.472-2.2-.948-2.787-.668-1.244.596-2.56 1.101-3.683 1.876-4.12 2.842-7.059 6.656-8.812 11.31-.561 1.49-.867 3.101-1.092 4.686-.565 3.979.11 7.82 1.737 11.496 1.399 3.162 3.383 5.923 5.93 8.297a25.326 25.326 0 008.13 5.11 15.33 15.33 0 003.758.947c2.117.246 4.266.475 6.386.39 4.956-.2 9.383-2.022 13.555-4.576 1.348-.825 1.74-2.171 2.381-3.409.03-.058-.016-.155-.026-.234-.043.04-.089.078-.13.12-2.08 2.143-4.595 3.622-7.321 4.834-3.696 1.642-7.559 2.308-11.582 2.049-1.998-.129-4.009-.261-5.863-1.256-.964-.519-2.089-.732-3.108-1.161-2.265-.955-4.193-2.44-5.896-4.153-2.972-2.989-5.1-6.489-6.174-10.59-.982-3.753-.93-7.47.216-11.145a20.99 20.99 0 012.9-5.837c2.669-3.793 6.134-6.546 10.6-8 .18-.058.412.044.636.027z" fill="#343461"/><path d="M53.701 33.175c-.03-.047-.05-.116-.093-.138-1.166-.58-2.267-1.374-3.686-1.13a.36.36 0 00-.243.113c-.198.216-.345.385-.531.464-2.454 1.046-4.534 2.612-6.289 4.593-2.592 2.928-4.467 6.253-5.119 10.147-.554 3.309-.395 6.566.75 9.795 1.434 4.041 3.823 7.36 7.145 10.004 1.203.958 2.597 1.687 3.946 2.445l.03.017c1.004.564 2.033 1.142 3.124 1.466 1.19.353 2.464.456 3.709.594 3.677.41 7.234-.134 10.648-1.516 3.67-1.486 6.871-3.667 9.357-6.769.958-1.195 1.834-2.495 2.498-3.868.323-.668.116-1.616.054-2.43-.018-.228-.373-.43-.573-.646-.112.194-.245.38-.333.584-.47 1.09-.776 2.286-1.419 3.261-1.833 2.784-4.04 5.21-6.997 6.91-2.548 1.464-5.197 2.563-8.111 3.047-3.91.649-7.656.035-11.19-1.61-1.473-.685-2.779-1.788-4.049-2.836-3.982-3.284-6.145-7.636-6.982-12.631-.678-4.044-.285-7.979 1.684-11.697.97-1.829 2.121-3.502 3.63-4.88 2.462-2.249 5.371-3.465 8.777-3.291.087.005.175.001.263.002z" fill="#343461"/><path d="M60.073 48.992c.493-3.432 1.026-6.859 1.505-10.293.078-.559.106-1.327-.59-1.445-.392-.067-1.072.284-1.278.646-.33.577-.374 1.32-.57 2.083-.158.888-.258 1.691-.412 2.485-.369 1.9-.693 3.815-1.194 5.682-.137.512-.767 1.108-1.285 1.267-2.378.727-4.793 1.328-7.203 1.942-.77.196-.836.617-.533 1.23.32.65 1.131.707 2.244.432 2.222-.55 4.457-1.07 6.71-1.446 1.705-.286 2.353-.821 2.606-2.583z" fill="#343461"/></svg>