<svg width="21" height="21" fill="none" xmlns="http://www.w3.org/2000/svg"><circle cx="10.5" cy="10.5" r="10.5" fill="#2F89CE"/><rect width="21" height="21" rx="2" fill="#2F89CE"/><path d="M4.9 10.696l2.415.9.941 3.028c.04.205.286.245.45.123l1.35-1.105c.123-.123.328-.123.491 0l2.414 1.76c.164.122.41.04.45-.164l1.8-8.592c.041-.205-.163-.41-.368-.328l-9.942 3.846c-.246.082-.246.45 0 .532zm3.233.45l4.746-2.905c.082-.04.164.082.082.123l-3.887 3.641c-.122.123-.245.287-.245.491l-.123.982c0 .123-.205.164-.245 0l-.491-1.8c-.123-.204-.041-.45.163-.532z" fill="#fff"/></svg>