<svg width="21" height="21" fill="none" xmlns="http://www.w3.org/2000/svg"><circle cx="10.5" cy="10.5" r="10.5" fill="#7C509A"/><rect width="21" height="21" rx="2" fill="#7C509A"/><path d="M13.783 5.537a16.267 16.267 0 00-6.08 0c-.885.19-2 1.26-2.193 2.101a12.006 12.006 0 000 4.968c.23.84 1.347 1.91 2.193 2.102.039 0 .077.038.077.076v2.408c0 .114.154.19.231.076l1.155-1.184s.923-.956 1.077-1.108c0 0 .038-.039.077-.039 1.154.039 2.347-.076 3.502-.267.885-.191 2-1.261 2.193-2.102a12.004 12.004 0 000-4.968c-.23-.802-1.347-1.872-2.232-2.063zm.039 7.184c-.193.382-.423.688-.808.879l-.347.114a4.797 4.797 0 01-.384-.114c-1.232-.497-2.386-1.185-3.31-2.178a9.193 9.193 0 01-1.27-1.911c-.154-.344-.308-.65-.423-.994-.116-.305.077-.611.27-.84a1.78 1.78 0 01.692-.497c.192-.115.385-.038.539.114.308.383.615.765.846 1.185.154.268.116.573-.154.764-.077.039-.115.077-.192.153-.039.038-.115.077-.154.153a.37.37 0 00-.038.344c.307.879.885 1.567 1.77 1.949a.92.92 0 00.461.115c.27-.039.385-.344.578-.497.192-.153.423-.153.654-.038.192.114.385.267.616.42.192.153.384.267.577.42.115.077.154.268.077.459zm-1.616-2.866c-.077 0-.039 0 0 0-.154 0-.193-.077-.231-.191 0-.077 0-.191-.039-.268a.726.726 0 00-.27-.42l-.23-.115c-.116-.038-.193-.038-.308-.038-.115-.038-.154-.115-.154-.23 0-.076.116-.152.193-.152.615.038 1.077.382 1.154 1.108v.153c0 .076-.038.153-.115.153zm-.385-1.682c-.193-.076-.385-.152-.616-.19-.077 0-.192-.039-.27-.039-.115 0-.192-.076-.153-.191 0-.115.077-.191.192-.153a3.43 3.43 0 011.078.268c.692.344 1.077.917 1.193 1.681v.497c-.039.153-.308.19-.347 0 0-.038-.038-.115-.038-.153 0-.344-.077-.688-.231-.994a2.072 2.072 0 00-.808-.726zm2.078 2.293c-.116 0-.193-.114-.193-.23a4.13 4.13 0 00-.077-.687c-.153-1.223-1.154-2.216-2.347-2.407-.192-.039-.385-.039-.539-.077-.115 0-.27 0-.308-.153-.038-.114.077-.229.193-.229h.077c1.578.038.077 0 0 0 1.616.038 2.963 1.108 3.232 2.713.039.268.077.535.077.84.077.116 0 .23-.115.23z" fill="#fff"/></svg>