<svg width="280" height="180" viewBox="0 0 280 180" fill="none" xmlns="http://www.w3.org/2000/svg">
<rect width="166" height="165" transform="translate(70 15)" fill="white"/>
<path fill-rule="evenodd" clip-rule="evenodd" d="M174.068 14.3668C142.232 9.15495 145.477 61.3255 103.117 54.1849C59.7884 46.8813 46.8385 98.4039 59.7884 126.863C73.7751 157.601 163.335 174.125 195.376 151.466C231.437 125.963 233.802 24.1457 174.068 14.3668Z" fill="#6B6B9A" fill-opacity="0.3"/>
<path fill-rule="evenodd" clip-rule="evenodd" d="M201.801 112.615C193.376 107.174 172.721 97.6899 164.779 95.6156C163.643 95.319 162.622 95.0765 162.51 95.0765C161.66 95.0765 161.521 99.0605 162.172 104.744C163.53 116.586 167.827 136.059 169.083 136.059C169.609 136.059 177.458 131.992 180.955 129.907C183.035 128.667 184.995 127.653 185.311 127.653C185.726 127.653 186.719 128.651 188.906 131.265C190.568 133.252 192.481 135.446 193.159 136.142C194.369 137.386 194.402 137.401 195.135 137.015C195.544 136.799 196.284 136.281 196.778 135.864L197.677 135.105L196.956 133.784C196.56 133.057 194.94 130.862 193.357 128.905C191.383 126.465 190.478 125.136 190.478 124.678C190.478 124.116 191.014 123.645 193.838 121.725C197.343 119.342 201.197 116.489 202.986 114.955L204.033 114.057L201.801 112.615ZM165.58 67.4874C157.03 67.3595 145.885 67.1317 140.813 66.9817C125.89 66.5401 112.806 66.729 106.298 67.4801L106.171 67.4948C102.93 67.8687 99.6187 68.6467 97.7744 69.8289C95.4031 71.3489 94.0857 71.9306 91.5084 75.9437C90.594 77.0749 90.0263 78.2608 90.0199 79.4568C89.8178 79.8164 88.1411 86.7473 88.6306 99.8053C88.7689 103.491 88.9934 110.115 90.0199 111.829C93.3763 117.437 104.907 117.943 148.306 117.273H161.153L159.99 109.549C159.253 104.529 158.917 96.5162 159.374 94.8493C159.845 93.133 160.663 92.4494 162.246 92.4494C165.974 92.4494 175.391 95.9863 188.834 102.436C191.335 103.635 193.469 104.53 193.576 104.423C193.912 104.089 193.967 92.2884 193.657 87.3265C192.756 72.9211 190.944 69.6204 183.101 68.1027C181.611 67.8143 177.303 67.6629 165.58 67.4874ZM83.1514 78.6313C82.7463 79.9097 82.5489 81.1023 82.4914 81.8096L82.3162 82.4664C81.672 84.8815 82.096 108.814 82.8363 111.829C83.9695 116.445 86.5508 118.709 92.3514 120.176C98.88 121.828 107.844 122.202 138.172 122.092L162.141 122.004L162.478 123.581C163.843 129.956 165.539 135.757 166.486 137.293C167.355 138.701 168.05 139.007 169.62 138.671C171.7 138.226 178.584 134.694 184.619 130.975C184.786 130.872 186.252 132.403 188.126 134.638C191.871 139.102 192.953 140 194.585 140C195.484 140 196.054 139.769 197.378 138.866C201.162 136.286 201.144 134.116 197.299 129.345C196.373 128.196 195.228 126.764 194.753 126.161L193.891 125.065L197.006 122.943C200.972 120.241 205.515 116.649 206.227 115.651C207.341 114.091 207.283 113.568 205.841 112.182C204.584 110.973 200.113 108.119 197.512 106.865L196.245 106.254L196.458 104.54C196.773 101.996 196.667 88.3456 196.303 84.5681C194.942 70.4492 192.194 66.6649 182.179 65.1149C181.142 64.9544 173.068 64.7271 163.736 64.5958C154.606 64.4673 142.047 64.2414 135.825 64.0937C122.635 63.7806 106.819 64.2881 100.707 65.0792C92.3603 66.4484 88.2162 71.407 88.2162 71.407C87.4317 71.9571 85.4163 74.5139 85.0569 74.9392C84.1689 75.9899 83.5563 77.3535 83.1514 78.6313Z" fill="#343461"/>
<path d="M157.603 73.5999C157.454 73.7807 154.282 79.7211 150.553 86.8011C146.824 93.8812 143.717 99.733 143.65 99.8053C143.282 100.197 137.492 93.4246 134.871 89.5375C134.027 88.287 133.151 87.1926 132.923 87.1056C132.3 86.8668 131.265 87.356 131.065 87.9839C130.696 89.1419 135.238 95.3899 139.996 100.271C143.119 103.474 144.031 104.091 144.756 103.491C145.309 103.034 159.915 75.239 159.915 74.6445C159.915 73.5902 158.234 72.8307 157.603 73.5999Z" fill="#343461"/>
<path d="M21.2584 155.343C20.9892 155.35 20.7214 155.401 20.4529 155.431C20.6186 155.699 20.7388 156.018 20.9631 156.221C21.1795 156.417 21.4945 156.577 21.7816 156.61C23.9429 156.857 26.1271 157.358 28.2677 157.229C32.269 156.989 36.2702 156.523 40.227 155.885C46.6779 154.845 53.09 153.574 59.5272 152.449C60.3085 152.312 60.868 151.958 60.6967 151.26C60.5386 150.614 60.0674 149.863 59.1104 150.099C57.3027 150.544 55.5015 151.015 53.6106 151.467C47.9123 153.315 42.1239 154.428 36.2521 154.896C31.2755 155.293 26.2578 155.209 21.2584 155.343Z" fill="#343461"/>
<path fill-rule="evenodd" clip-rule="evenodd" d="M16.7359 159.703C15.0807 157.115 13.5681 154.382 12.4173 151.542C11.1839 148.497 10.8784 145.195 11.361 141.926C12.0188 137.47 13.7632 133.487 16.6496 129.99C17.8719 128.51 19.2452 127.235 20.7337 126.065C21.4461 125.504 22.1945 124.989 22.9428 124.474C23.1868 124.307 23.4308 124.139 23.6735 123.969C25.7645 122.51 27.2355 120.486 28.7079 118.461L28.749 118.404C30.2533 116.335 32.3167 114.94 34.4063 113.526L34.4817 113.475C37.6076 111.361 41.1419 110.31 44.7091 109.389C46.5546 108.912 48.4669 108.675 50.3738 108.438C50.8398 108.38 51.3055 108.322 51.7698 108.261C53.3175 108.057 54.8745 107.918 56.4708 107.777C56.9373 107.735 57.4072 107.694 57.8812 107.65C58.2229 107.61 58.5634 107.57 58.9029 107.531C61.4712 107.231 63.9814 106.939 66.4836 106.592C67.328 106.476 68.163 106.294 68.998 106.113C69.398 106.026 69.798 105.939 70.1991 105.859C70.2114 105.857 70.2237 105.854 70.236 105.852C70.3759 105.823 70.5206 105.794 70.6593 105.807C71.0378 105.842 71.4154 105.888 71.7931 105.933C71.937 105.951 72.0808 105.968 72.2247 105.985C72.1012 106.1 71.984 106.234 71.8668 106.367C71.6138 106.655 71.3608 106.942 71.0449 107.052C67.3458 108.333 63.4895 108.798 59.5965 109.067C58.8925 109.115 58.1879 109.16 57.4832 109.204C53.4698 109.455 49.4551 109.707 45.5471 110.774C42.5286 111.599 39.6166 112.683 36.9763 114.384C36.8016 114.496 36.6266 114.609 36.4516 114.721C35.0943 115.593 33.7335 116.467 32.4655 117.456C31.4411 118.255 30.4868 119.144 29.5328 120.032C29.163 120.377 28.7933 120.721 28.4195 121.06C28.3531 121.121 28.3257 121.346 28.3349 121.349C28.382 121.368 28.4293 121.387 28.4769 121.407C28.65 121.479 28.8263 121.553 29.0028 121.557C29.5933 121.57 30.1839 121.571 30.7746 121.573C31.3805 121.574 31.9864 121.576 32.5921 121.59C35.6316 121.659 38.3595 122.539 40.8054 124.464C43.2214 126.367 44.1494 128.868 43.9975 131.748C43.805 135.397 41.4492 137.271 38.0652 137.636C34.9696 137.97 32.3374 136.938 29.9856 134.765C27.6863 132.641 26.5647 129.923 25.4871 127.168C25.4514 127.077 25.4178 126.988 25.3856 126.903C25.058 126.034 24.859 125.506 23.8015 126.312C23.3833 126.631 22.9736 126.964 22.5639 127.297C21.6849 128.011 20.8062 128.725 19.8444 129.302C18.2617 130.251 17.3383 131.685 16.4019 133.14C16.2656 133.351 16.1291 133.563 15.9903 133.774C13.8271 137.062 12.9902 140.68 12.9901 144.606C12.9901 147.617 13.6319 150.471 14.8437 153.164C16.0947 155.944 17.7066 158.485 19.9353 160.709C23.546 164.31 27.8322 166.501 32.653 167.733C36.068 168.606 39.5609 168.603 43.0535 168.275C43.4067 168.241 43.7703 168.313 44.1341 168.384C44.3065 168.418 44.4789 168.451 44.6502 168.474C45.3162 168.562 45.8326 168.984 45.6384 169.595C45.491 170.058 44.8788 170.683 44.4573 170.693L43.4763 170.715C41.5115 170.758 39.5327 170.782 37.6021 170.504C35.2374 170.163 32.9072 169.462 30.6097 168.757C26.7696 167.581 23.2902 165.696 20.2827 162.984C19.9042 162.642 19.4953 162.321 19.0865 161.999C18.1982 161.3 17.3103 160.602 16.7359 159.703ZM41.0755 134.209C38.7245 136.516 35.7122 136.775 32.8371 134.691C29.9167 132.575 27.4797 130.241 27.2513 126.329C27.1868 125.224 27.5681 124.539 28.3905 123.969C31.7377 122.212 34.7508 122.978 37.6326 124.571C39.6416 125.681 41.3003 127.244 42.2398 129.399C43.0594 131.279 42.5572 132.755 41.0755 134.209Z" fill="#343461"/>
<path d="M252.575 104.813C251.372 104.247 250.198 103.61 248.963 103.128C248.564 102.973 247.879 103.063 247.563 103.31C247.195 103.597 247.184 104.176 247.744 104.536C248.282 104.882 248.798 105.298 249.385 105.524C250.582 105.984 251.842 106.281 253.039 106.743C255.993 107.885 258.925 109.082 261.896 110.316C262.202 110.448 262.476 110.538 262.756 110.587C262.998 110.63 263.246 110.626 263.491 110.644C263.434 110.311 263.501 109.829 263.296 109.673C262.696 109.213 262.017 108.812 261.314 108.518C259.887 107.921 258.404 107.453 256.98 106.851C255.49 106.221 254.039 105.502 252.575 104.813Z" fill="#343461"/>
<path d="M260.496 65.0713C260.617 64.9853 260.676 64.6464 260.61 64.4889C260.211 63.538 259.101 63.4252 258.081 64.2466C255.867 66.0305 253.677 67.8451 251.454 69.6173C251.119 69.8843 250.551 70.0405 250.93 70.5309C251.079 70.7237 251.787 70.7151 252.073 70.5339C254.259 69.1498 256.403 67.7005 258.623 66.243C259.293 65.8392 259.915 65.4843 260.496 65.0713Z" fill="#343461"/>
<path d="M230.801 20.1171C230.731 19.8175 230.573 19.4268 230.343 19.3168C230.146 19.2229 229.704 19.3894 229.517 19.5856C229.105 20.0185 228.64 20.493 228.453 21.0379C227.372 24.1886 225.882 27.1123 224.076 29.9085C222.181 32.8435 220.484 35.9082 218.615 38.861C216.072 42.877 213.444 46.8374 210.876 50.8374C210.766 51.0092 210.81 51.3945 210.929 51.5832C211.282 52.1428 211.995 52.078 212.461 51.3629C214.163 48.7565 215.823 46.1227 217.487 43.4917C218.501 41.8891 219.508 40.282 220.491 38.66C221.669 36.7158 222.807 34.747 223.983 32.8017C224.631 31.7308 225.322 30.6863 226.027 29.5385L226.045 29.5067C226.471 28.7327 226.853 28.0394 227.261 27.3621C228.146 25.8921 229.109 24.4649 229.915 22.9524C230.376 22.0855 231.059 21.2165 230.801 20.1171Z" fill="#343461"/>
<path d="M173.407 23.6202C173.378 23.1659 173.31 22.8053 173.248 22.4435C173.116 21.667 172.477 21.4663 171.902 21.3958C171.573 21.3556 170.966 21.6763 170.866 21.9655C170.709 22.4162 170.825 22.9906 170.919 23.4899C171.028 24.0671 171.383 24.6165 171.375 25.1838C171.361 26.2205 171.108 27.2603 171.049 28.301C170.997 29.2095 171.039 30.1266 171.13 31.0265C171.147 31.2013 171.582 31.3146 171.825 31.4562C171.909 31.2668 172.026 31.0844 172.07 30.8868C172.25 30.0914 172.427 29.2945 172.568 28.4925C172.849 26.9014 173.106 25.3065 173.407 23.6202Z" fill="#343461"/>
<path d="M49.5364 31.7203C49.6233 31.6677 49.6941 31.6597 49.781 31.6071C49.5617 31.1353 47.5803 30.6586 46.9941 30.9393C45.7503 31.5349 44.4339 32.0402 43.3112 32.8146C39.1911 35.6567 36.2523 39.4709 34.4991 44.1249C33.9379 45.6146 33.632 47.2264 33.4069 48.8112C32.8419 52.79 33.5175 56.6307 35.1441 60.3075C36.5426 63.4688 38.5265 66.2299 41.0733 68.6045C43.4588 70.8287 46.1756 72.5327 49.2031 73.714C50.3997 74.1809 51.6879 74.5129 52.9617 74.661C55.0793 74.9072 57.2277 75.136 59.3477 75.0508C64.3036 74.8518 68.7313 73.0291 72.9033 70.4751C74.2512 69.6499 74.6425 68.3036 75.2842 67.066C75.3142 67.0081 75.2684 66.9112 75.2579 66.8325C75.2146 66.8721 75.1691 66.9097 75.1283 66.9517C73.0472 69.0951 70.5332 70.5743 67.8067 71.7858C64.1109 73.4279 60.2481 74.0935 56.2252 73.8348C54.2275 73.7064 52.216 73.574 50.3625 72.5785C49.3977 72.0604 48.273 71.8472 47.2538 71.4177C44.9888 70.4634 43.0612 68.9777 41.3581 67.265C38.3863 64.2764 36.2571 60.776 35.1838 56.6751C34.2015 52.9216 34.2533 49.2046 35.3995 45.5302C36.0508 43.4423 37.0337 41.4938 38.3007 39.6926C40.9687 35.8997 44.4342 33.147 48.9004 31.6934C49.0793 31.6351 49.3124 31.7374 49.5364 31.7203Z" fill="#343461"/>
<path d="M53.7014 33.1749C53.6707 33.1278 53.651 33.0586 53.6077 33.037C52.4415 32.4578 51.3406 31.6625 49.9218 31.9066C49.8514 31.9148 49.7811 31.9231 49.6785 32.0205C49.4811 32.2365 49.3337 32.4047 49.148 32.4839C46.6942 33.53 44.6138 35.0962 42.8595 37.0774C40.2669 40.0053 38.392 43.33 37.74 47.2238C37.1858 50.5329 37.345 53.7898 38.4902 57.0188C39.9236 61.0603 42.3128 64.3795 45.6347 67.0232C46.8375 67.9805 48.2319 68.7096 49.5812 69.4678L49.6116 69.4849C50.6146 70.0485 51.6442 70.627 52.7354 70.9509C53.9259 71.3042 55.1987 71.4066 56.4438 71.5451C60.1207 71.9543 63.6779 71.4109 67.0921 70.0288C70.7617 68.5433 73.9631 66.3621 76.4492 63.2603C77.4071 62.0651 78.2829 60.7645 78.9469 59.3917C79.2698 58.724 79.0628 57.7763 79.0006 56.9626C78.9832 56.7342 78.6282 56.5311 78.428 56.3164C78.3158 56.5104 78.1828 56.6955 78.0948 56.8999C77.6253 57.9907 77.3185 59.1858 76.676 60.1614C74.8431 62.9446 72.6351 65.3709 69.6794 67.0702C67.1311 68.5352 64.4824 69.6338 61.5675 70.1177C57.6572 70.7667 53.9124 70.1533 50.3771 68.5083C48.9048 67.8232 47.5995 66.7198 46.3294 65.6723C42.3469 62.3879 40.1837 58.0362 39.3466 53.0407C38.669 48.9974 39.0618 45.0622 41.0313 41.3442C42.0002 39.5152 43.1522 37.8421 44.661 36.464C47.1229 34.2154 50.0324 32.9991 53.4376 33.173C53.5253 33.1775 53.6134 33.1744 53.7014 33.1749Z" fill="#343461"/>
<path d="M60.0731 48.9918C60.5663 45.5598 61.0991 42.1331 61.578 38.6993C61.656 38.1402 61.6838 37.3719 60.9879 37.2537C60.5956 37.187 59.9164 37.5378 59.7096 37.8996C59.3798 38.4768 59.3362 39.2198 59.1391 39.9825C58.9821 40.871 58.8822 41.6743 58.7282 42.4675C58.3591 44.3683 58.035 46.283 57.5345 48.1503C57.3974 48.6616 56.7673 49.2582 56.2495 49.4166C53.8711 50.1443 51.4558 50.7454 49.046 51.3589C48.276 51.5549 48.2101 51.9756 48.5126 52.5894C48.8331 53.2395 49.6441 53.2962 50.7569 53.0207C52.9787 52.4706 55.2139 51.9517 57.4668 51.5748C59.172 51.2894 59.8198 50.7537 60.0731 48.9918Z" fill="#343461"/>
</svg>
