<svg width="21" height="21" viewBox="0 0 21 21" fill="none" xmlns="http://www.w3.org/2000/svg">
<circle cx="10.5" cy="10.5" r="10.5" fill="#2F89CE"/>
<rect width="21" height="21" rx="2" fill="#2F89CE"/>
<path d="M4.90091 10.6962L7.31492 11.5963L8.25596 14.624C8.29688 14.8286 8.54237 14.8695 8.70603 14.7468L10.0562 13.6421C10.179 13.5193 10.3835 13.5193 10.5472 13.6421L12.9612 15.4014C13.1249 15.5242 13.3704 15.4423 13.4113 15.2378L15.2115 6.6456C15.2524 6.44102 15.0479 6.23645 14.8433 6.31828L4.90091 10.1643C4.65542 10.2461 4.65542 10.6144 4.90091 10.6962ZM8.13322 11.1463L12.8794 8.24129C12.9612 8.20037 13.043 8.32312 12.9612 8.36404L9.07426 12.0055C8.95152 12.1282 8.82877 12.2919 8.82877 12.4965L8.70603 13.4784C8.70603 13.6012 8.50145 13.6421 8.46054 13.4784L7.96955 11.6782C7.8468 11.4736 7.92864 11.2281 8.13322 11.1463Z" fill="white"/>
</svg>
