<svg width="21" height="21" viewBox="0 0 21 21" fill="none" xmlns="http://www.w3.org/2000/svg">
<circle cx="10.5" cy="10.5" r="10.5" fill="#7C509A"/>
<rect width="21" height="21" rx="2" fill="#7C509A"/>
<path d="M13.7833 5.5366C11.7823 5.15447 9.70425 5.15447 7.70321 5.5366C6.81813 5.72767 5.70216 6.79767 5.50975 7.63837C5.16342 9.28157 5.16342 10.963 5.50975 12.6062C5.74064 13.4469 6.85661 14.5169 7.70321 14.708C7.74169 14.708 7.78017 14.7462 7.78017 14.7844V17.1919C7.78017 17.3065 7.9341 17.3829 8.01106 17.2683L9.16551 16.0837C9.16551 16.0837 10.0891 15.1283 10.243 14.9755C10.243 14.9755 10.2815 14.9372 10.32 14.9372C11.4744 14.9755 12.6673 14.8608 13.8218 14.6697C14.7069 14.4787 15.8228 13.4087 16.0152 12.568C16.3616 10.9248 16.3616 9.24336 16.0152 7.60016C15.7844 6.79767 14.6684 5.72767 13.7833 5.5366ZM13.8218 12.7208C13.6294 13.103 13.3985 13.4087 13.0137 13.5998C12.8982 13.638 12.7828 13.6762 12.6673 13.7144C12.5134 13.6762 12.398 13.638 12.2825 13.5998C11.0511 13.103 9.89666 12.4151 8.9731 11.4216C8.47284 10.8483 8.04954 10.1987 7.70321 9.51086C7.54928 9.16693 7.39535 8.86122 7.27991 8.51729C7.16446 8.21158 7.35687 7.90587 7.54928 7.67659C7.74169 7.4473 7.97258 7.29445 8.24195 7.1798C8.43436 7.06516 8.62677 7.14159 8.78069 7.29445C9.08855 7.67659 9.3964 8.05873 9.62729 8.47908C9.78122 8.74658 9.74273 9.05229 9.47336 9.24336C9.3964 9.28157 9.35792 9.31979 9.28095 9.39621C9.24247 9.43443 9.16551 9.47264 9.12703 9.54907C9.05006 9.66371 9.05006 9.77835 9.08855 9.893C9.3964 10.7719 9.97362 11.4598 10.8587 11.8419C11.0126 11.9183 11.1281 11.9566 11.3205 11.9566C11.5899 11.9183 11.7053 11.6126 11.8977 11.4598C12.0901 11.3069 12.321 11.3069 12.5519 11.4216C12.7443 11.5362 12.9367 11.6891 13.1676 11.8419C13.36 11.9948 13.5524 12.1094 13.7448 12.2623C13.8603 12.3387 13.8988 12.5298 13.8218 12.7208ZM12.2056 9.85478C12.1286 9.85478 12.1671 9.85478 12.2056 9.85478C12.0516 9.85478 12.0132 9.77835 11.9747 9.66371C11.9747 9.58729 11.9747 9.47264 11.9362 9.39621C11.8977 9.24336 11.8207 9.0905 11.6668 8.97586C11.5899 8.93765 11.5129 8.89943 11.4359 8.86122C11.3205 8.823 11.2435 8.82301 11.1281 8.82301C11.0126 8.78479 10.9741 8.70836 10.9741 8.59372C10.9741 8.51729 11.0896 8.44087 11.1666 8.44087C11.7823 8.47908 12.244 8.823 12.321 9.54907C12.321 9.58728 12.321 9.66371 12.321 9.70193C12.321 9.77835 12.2825 9.85478 12.2056 9.85478ZM11.8207 8.17337C11.6283 8.09694 11.4359 8.02051 11.205 7.9823C11.1281 7.9823 11.0126 7.94408 10.9357 7.94408C10.8202 7.94408 10.7433 7.86766 10.7817 7.75301C10.7817 7.63837 10.8587 7.56194 10.9741 7.60016C11.359 7.63837 11.7053 7.7148 12.0516 7.86766C12.7443 8.21158 13.1291 8.78479 13.2446 9.54907C13.2446 9.58728 13.2446 9.6255 13.2446 9.66371C13.2446 9.74014 13.2446 9.81657 13.2446 9.93121C13.2446 9.96942 13.2446 10.0076 13.2446 10.0459C13.2061 10.1987 12.9367 10.2369 12.8982 10.0459C12.8982 10.0076 12.8598 9.93121 12.8598 9.893C12.8598 9.54907 12.7828 9.20514 12.6289 8.89943C12.398 8.55551 12.1286 8.32622 11.8207 8.17337ZM13.8988 10.4662C13.7833 10.4662 13.7063 10.3516 13.7063 10.2369C13.7063 10.0076 13.6679 9.77835 13.6294 9.54907C13.4755 8.32622 12.4749 7.33266 11.282 7.14159C11.0896 7.10338 10.8972 7.10338 10.7433 7.06516C10.6278 7.06516 10.4739 7.06516 10.4354 6.91231C10.3969 6.79767 10.5124 6.68302 10.6278 6.68302C10.6663 6.68302 10.7048 6.68302 10.7048 6.68302C12.2825 6.72124 10.7817 6.68302 10.7048 6.68302C12.321 6.72124 13.6679 7.79123 13.9372 9.39621C13.9757 9.66371 14.0142 9.93121 14.0142 10.2369C14.0912 10.3516 14.0142 10.4662 13.8988 10.4662Z" fill="white"/>
</svg>
